<?xml version="1.0" standalone="no"?>
<!DOCTYPE svg PUBLIC "-//W3C//DTD SVG 20010904//EN"
 "http://www.w3.org/TR/2001/REC-SVG-20010904/DTD/svg10.dtd">
<svg version="1.0" xmlns="http://www.w3.org/2000/svg"
 width="180.000000pt" height="180.000000pt" viewBox="0 0 180.000000 180.000000"
 preserveAspectRatio="xMidYMid meet">

<g transform="translate(0.000000,180.000000) scale(0.100000,-0.100000)"
fill="#000000" stroke="none">
<path d="M575 1721 c-44 -9 -93 -24 -110 -32 -28 -13 -30 -18 -29 -69 2 -73
40 -154 100 -214 26 -25 52 -46 57 -46 6 0 -8 -16 -31 -36 -52 -44 -69 -75
-78 -143 -4 -35 -13 -55 -25 -62 -25 -13 -66 -85 -74 -130 -8 -42 8 -107 33
-140 10 -13 30 -62 43 -109 33 -116 75 -160 239 -247 25 -13 60 -35 79 -49 78
-56 168 -55 253 3 29 19 73 46 98 60 161 87 185 115 225 253 11 36 27 77 38
91 24 34 38 95 31 139 -8 44 -49 116 -73 130 -12 6 -21 26 -26 57 -10 71 -28
105 -74 145 l-42 35 28 18 c39 26 82 75 100 115 8 19 20 45 25 56 5 12 11 45
11 75 2 50 0 55 -28 68 -71 34 -193 51 -263 36 -79 -17 -123 -44 -151 -95 -26
-47 -27 -46 -62 18 -19 33 -80 65 -157 81 -29 6 -54 11 -55 10 -1 0 -38 -8
-82 -18z m123 -35 c5 -3 17 -3 25 0 8 3 18 0 22 -5 3 -6 11 -9 16 -5 6 3 19
-2 30 -12 10 -9 19 -13 19 -9 0 20 41 -31 55 -69 12 -32 14 -48 6 -69 -16 -40
-35 -42 -83 -9 -43 30 -161 92 -174 92 -4 0 33 -27 82 -59 50 -33 96 -67 103
-75 29 -35 -47 -96 -119 -96 -16 0 -30 5 -30 10 0 6 -11 10 -25 10 -14 0 -25
4 -25 9 0 5 -9 13 -20 16 -11 3 -20 12 -20 20 0 8 -9 17 -21 20 -11 4 -18 13
-15 20 2 7 -2 16 -11 19 -8 4 -13 13 -10 20 3 8 -1 20 -9 27 -8 7 -13 18 -10
25 2 6 2 15 -2 19 -3 3 -7 22 -8 41 -1 29 2 34 23 34 12 0 23 5 23 11 0 7 11
9 30 6 19 -4 30 -2 30 4 0 6 9 9 20 6 11 -3 20 -1 20 3 0 10 61 7 78 -4z m442
4 c0 -7 8 -7 22 1 15 8 23 8 26 1 1 -5 12 -8 22 -5 11 3 20 0 20 -6 0 -6 11
-8 30 -4 19 3 30 1 30 -6 0 -6 11 -11 25 -11 22 0 25 -3 19 -25 -4 -17 -2 -25
6 -25 9 0 8 -6 -3 -18 -10 -10 -14 -22 -11 -25 4 -4 1 -13 -5 -21 -7 -8 -10
-20 -6 -25 3 -6 -3 -16 -14 -22 -10 -7 -17 -18 -14 -25 2 -7 -5 -15 -16 -19
-12 -3 -21 -12 -21 -20 0 -8 -9 -17 -20 -20 -11 -3 -20 -11 -20 -16 0 -5 -11
-9 -25 -9 -14 0 -25 -4 -25 -10 0 -16 -62 -11 -99 8 -19 9 -41 27 -49 39 -13
21 -11 25 24 57 21 19 67 52 101 72 35 20 63 38 63 40 0 11 -80 -30 -203 -104
-27 -16 -29 -16 -43 2 -21 30 -17 88 9 127 12 19 26 32 29 29 3 -3 15 3 26 13
12 11 25 16 31 13 5 -4 13 -2 16 4 4 6 15 8 25 5 10 -3 21 -1 25 5 8 13 25 13
25 0z m-430 -719 c121 -51 144 -69 119 -93 -35 -33 -68 -39 -150 -27 -70 11
-83 16 -110 46 -35 39 -50 100 -28 114 25 16 52 9 169 -40z m544 43 c30 -11
20 -70 -18 -112 -32 -35 -42 -39 -115 -51 -77 -13 -81 -12 -120 10 -60 33 -54
50 24 82 22 9 72 29 110 46 73 31 93 35 119 25z m-374 -262 c0 -43 -6 -53 -26
-45 -17 6 -18 24 -2 58 16 36 28 31 28 -13z m70 19 c14 -28 13 -58 -4 -64 -20
-8 -26 2 -26 45 0 41 13 50 30 19z"/>
<path d="M180 270 l0 -120 155 0 c182 0 175 -5 175 120 0 125 7 120 -175 120
l-155 0 0 -120z m272 82 c8 -8 13 -39 13 -83 0 -93 -8 -99 -137 -99 l-98 0 0
101 0 101 105 -4 c68 -2 109 -7 117 -16z"/>
<path d="M570 375 c0 -9 9 -15 25 -15 16 0 25 6 25 15 0 9 -9 15 -25 15 -16 0
-25 -6 -25 -15z"/>
<path d="M1220 270 l0 -120 25 0 c22 0 25 4 25 39 l0 38 104 5 c140 6 158 17
154 96 l-3 57 -152 3 -153 3 0 -121z m238 94 c18 -5 22 -13 22 -45 l0 -39
-105 0 -105 0 0 45 0 45 83 0 c45 0 92 -3 105 -6z"/>
<path d="M1580 375 c0 -8 9 -15 20 -15 11 0 20 7 20 15 0 8 -9 15 -20 15 -11
0 -20 -7 -20 -15z"/>
<path d="M990 364 c0 -9 -9 -18 -20 -21 -26 -7 -27 -43 0 -43 17 0 19 -8 22
-72 l3 -73 74 -3 c81 -3 91 2 91 51 0 20 -5 27 -19 27 -14 0 -21 -8 -23 -27
-3 -25 -7 -28 -38 -28 l-35 0 -3 63 -3 62 61 0 c53 0 60 2 60 20 0 18 -7 20
-59 20 -50 0 -59 3 -64 20 -6 24 -47 28 -47 4z"/>
<path d="M570 245 c0 -95 0 -95 25 -95 25 0 25 0 25 95 0 95 0 95 -25 95 -25
0 -25 0 -25 -95z"/>
<path d="M1580 245 c0 -88 1 -95 20 -95 19 0 20 7 20 95 0 88 -1 95 -20 95
-19 0 -20 -7 -20 -95z"/>
<path d="M686 308 c-19 -27 -21 -117 -3 -141 10 -15 27 -17 117 -15 100 3 105
4 108 26 3 16 -2 22 -17 22 -11 0 -24 -7 -29 -16 -6 -12 -23 -14 -73 -12 -58
3 -64 5 -67 26 -3 21 -1 22 92 22 l96 0 0 33 c0 18 -7 43 -16 55 -14 20 -24
22 -104 22 -80 0 -90 -2 -104 -22z m166 -14 c5 -3 8 -12 8 -20 0 -11 -16 -14
-71 -14 -61 0 -70 2 -67 17 2 9 14 20 28 24 24 7 86 2 102 -7z"/>
</g>
</svg>
