<?xml version="1.0" encoding="UTF-8"?>
<svg version="1.1" xmlns="http://www.w3.org/2000/svg" width="500" height="500">
<path d="M0 0 C0.96971741 0.00054382 1.93943481 0.00108765 2.9385376 0.00164795 C18.50898263 0.0417226 33.45806342 0.86296503 48.6875 4.375 C49.64156738 4.59462402 50.59563477 4.81424805 51.57861328 5.04052734 C78.32051196 11.41581043 103.89034839 21.94214797 126.6875 37.375 C127.2861084 37.77686523 127.8847168 38.17873047 128.50146484 38.59277344 C151.37041682 54.06313016 171.87615538 73.74285718 187.6875 96.375 C188.36280762 97.33116211 188.36280762 97.33116211 189.05175781 98.30664062 C209.54235512 127.50160759 223.31362553 161.04770009 228.6875 196.375 C228.86265137 197.49511475 229.03780273 198.61522949 229.21826172 199.76928711 C230.8222463 211.07945314 231.08675288 222.27504914 231.0625 233.6875 C231.06168427 235.13641129 231.06168427 235.13641129 231.06085205 236.61459351 C231.01982791 252.51177694 230.09507363 267.7945568 226.6875 283.375 C226.36604004 284.85419922 226.36604004 284.85419922 226.03808594 286.36328125 C221.47473577 306.63598097 214.57768318 326.09772802 204.6875 344.375 C204.30335938 345.10170898 203.91921875 345.82841797 203.5234375 346.57714844 C187.55645418 376.77277415 164.40495454 404.27715082 136.6875 424.375 C135.66785156 425.1278125 134.64820313 425.880625 133.59765625 426.65625 C94.73108514 454.49510547 49.06009032 468.85069802 1.375 468.75 C0.40528259 468.74945618 -0.56443481 468.74891235 -1.5635376 468.74835205 C-17.13398263 468.7082774 -32.08306342 467.88703497 -47.3125 464.375 C-48.26656738 464.15537598 -49.22063477 463.93575195 -50.20361328 463.70947266 C-76.94551196 457.33418957 -102.51534839 446.80785203 -125.3125 431.375 C-126.2104126 430.77220215 -126.2104126 430.77220215 -127.12646484 430.15722656 C-149.99541682 414.68686984 -170.50115538 395.00714282 -186.3125 372.375 C-186.76270508 371.73755859 -187.21291016 371.10011719 -187.67675781 370.44335938 C-208.16735512 341.24839241 -221.93862553 307.70229991 -227.3125 272.375 C-227.48765137 271.25488525 -227.66280273 270.13477051 -227.84326172 268.98071289 C-229.4472463 257.67054686 -229.71175288 246.47495086 -229.6875 235.0625 C-229.68695618 234.09655914 -229.68641235 233.13061829 -229.68585205 232.13540649 C-229.64482791 216.23822306 -228.72007363 200.9554432 -225.3125 185.375 C-225.09819336 184.38886719 -224.88388672 183.40273437 -224.66308594 182.38671875 C-220.09973577 162.11401903 -213.20268318 142.65227198 -203.3125 124.375 C-202.92835938 123.64829102 -202.54421875 122.92158203 -202.1484375 122.17285156 C-186.18145418 91.97722585 -163.02995454 64.47284918 -135.3125 44.375 C-134.29285156 43.6221875 -133.27320313 42.869375 -132.22265625 42.09375 C-93.35608514 14.25489453 -47.68509032 -0.10069802 0 0 Z " fill="#8FC2EF" transform="translate(249.3125,15.625)"/>
<path d="M0 0 C1.09181193 -0.01125335 1.09181193 -0.01125335 2.20568067 -0.02273405 C4.65151817 -0.04411351 7.09687678 -0.04395036 9.5428009 -0.04379272 C11.29379525 -0.05440342 13.04478257 -0.06623301 14.79576111 -0.07919312 C19.55838565 -0.11002067 24.32085995 -0.12112038 29.08357406 -0.12683535 C32.05948013 -0.13118626 35.03534712 -0.13955874 38.01124001 -0.14933395 C48.39466473 -0.18310128 58.77797561 -0.20021738 69.16145325 -0.20297241 C78.83701006 -0.20600509 88.51192694 -0.24641915 98.187298 -0.30412066 C106.49487056 -0.35191819 114.8022321 -0.3727045 123.1099413 -0.37276304 C128.07132391 -0.37330098 133.03208061 -0.38487653 137.99332237 -0.42393875 C142.66314658 -0.45983283 147.33180521 -0.46206691 152.00169754 -0.43876648 C153.71251157 -0.43590894 155.42339454 -0.44494098 157.13406944 -0.46694565 C171.6593215 -0.64214676 171.6593215 -0.64214676 176.81947327 3.80976868 C177.87983703 4.9788828 178.91133061 6.1755543 179.89753723 7.40786743 C181.15546082 8.60174072 181.15546082 8.60174072 182.438797 9.81973267 C183.14834534 10.52815308 183.85789368 11.23657349 184.58894348 11.96646118 C185.7887384 13.16432251 185.7887384 13.16432251 187.01277161 14.38638306 C187.82036926 15.1978479 188.62796692 16.00931274 189.46003723 16.84536743 C190.27150208 17.65296509 191.08296692 18.46056274 191.91902161 19.29263306 C192.71759583 20.09249634 193.51617004 20.89235962 194.33894348 21.71646118 C195.04736389 22.42600952 195.7557843 23.13555786 196.485672 23.86660767 C198.37603126 25.85838311 200.16177933 27.87378041 201.94416809 29.95889282 C206.40718893 35.08970161 211.22987233 39.85265953 216.05387878 44.63937378 C217.74746585 46.32000983 219.437745 48.00391372 221.12727356 49.68862915 C224.71453537 53.2645528 228.30572843 56.83651175 231.89753723 60.40786743 C236.06506696 64.55166566 240.23089698 68.69714405 244.39250183 72.84689331 C246.04486255 74.49284849 247.70024188 76.13572388 249.35578918 77.7784729 C257.68732873 86.07053213 257.68732873 86.07053213 261.46418762 90.50527954 C265.38775992 95.09381416 269.77044646 99.1734997 274.15666008 103.31424141 C277.28290127 106.27872509 280.3705819 109.28351395 283.46542263 112.28070164 C286.16861776 114.89429244 288.88390608 117.49252931 291.6287384 120.06240845 C294.30926897 122.57362094 296.95035377 125.12097005 299.56973457 127.69584465 C300.56404664 128.6602448 301.5714737 129.6113349 302.59248161 130.54742622 C307.11050494 134.70180339 310.51050023 138.04882674 311.52694702 144.24420166 C311.79179484 151.77192606 310.59477684 159.32963529 308.96003723 166.65786743 C308.7425885 167.66091919 308.52513977 168.66397095 308.30110168 169.69741821 C300.88700465 202.179415 287.17766044 232.93008348 266.89753723 259.40786743 C266.21046692 260.30634399 265.52339661 261.20482056 264.81550598 262.13052368 C251.57323183 279.02944158 236.29640786 294.79199474 218.89753723 307.40786743 C217.87788879 308.16067993 216.85824036 308.91349243 215.80769348 309.68911743 C193.57912058 325.6107182 169.14757539 336.93594646 142.89753723 344.40786743 C141.63167786 344.76880493 140.36581848 345.12974243 139.06159973 345.50161743 C129.68446419 348.00218691 129.68446419 348.00218691 124.89753723 347.40786743 C122.66844373 345.47221434 120.93394135 343.67141544 119.04988098 341.43521118 C117.81625364 340.04534159 116.57740229 338.66009857 115.33454895 337.2784729 C114.63964355 336.50477356 113.94473816 335.73107422 113.22877502 334.93392944 C108.72505919 330.05383291 103.98728698 325.40294748 99.27644348 320.72427368 C98.2292563 319.68110915 97.18225034 318.63776267 96.13542175 317.59423828 C92.91303688 314.38351866 89.68682792 311.17665831 86.46003723 307.97036743 C82.6778599 304.21201882 78.89747808 300.45189577 75.12127495 296.68754387 C73.63289002 295.20553205 72.14148235 293.72661266 70.64987183 292.24784851 C66.79652313 288.40840646 62.9809007 284.58564005 59.44197083 280.45230103 C55.2449415 275.55851669 50.65678748 271.05513938 46.08282661 266.51799202 C44.46258557 264.91067589 42.84563124 263.30011474 41.22943115 261.68873596 C37.80913019 258.27976369 34.38486084 254.87479519 30.96003723 251.47036743 C26.96484092 247.49877846 22.97129063 243.52556202 18.98188591 239.54815483 C17.38621821 237.95898317 15.78757988 236.37284106 14.18881226 234.78678894 C13.22056236 233.82216786 12.25245051 232.8574082 11.28450012 231.89248657 C10.43513382 231.04835709 9.58576752 230.2042276 8.71066284 229.33451843 C6.89753723 227.40786743 6.89753723 227.40786743 6.89753723 226.40786743 C28.01753723 226.40786743 49.13753723 226.40786743 70.89753723 226.40786743 C70.89753723 223.76786743 70.89753723 221.12786743 70.89753723 218.40786743 C69.77073547 218.52307739 68.64393372 218.63828735 67.48298645 218.75698853 C32.51412468 222.0224381 32.51412468 222.0224381 22.48738098 213.75552368 C16.83186439 208.66346534 12.30864725 202.5761096 7.89753723 196.40786743 C4.18058179 191.39876831 4.18058179 191.39876831 -1.10246277 188.40786743 C-1.10246277 185.76786743 -1.10246277 183.12786743 -1.10246277 180.40786743 C-2.03058777 180.46974243 -2.95871277 180.53161743 -3.91496277 180.59536743 C-7.10246277 180.40786743 -7.10246277 180.40786743 -8.77742004 179.19558716 C-10.49897441 176.87290228 -10.48261423 175.49337345 -10.49064636 172.61685181 C-10.50010284 171.64574463 -10.50955933 170.67463745 -10.51930237 169.67410278 C-10.51322968 168.62718262 -10.50715698 167.58026245 -10.50090027 166.50161743 C-10.50377045 165.42537109 -10.50664062 164.34912476 -10.50959778 163.24026489 C-10.51164002 160.96393305 -10.50609906 158.68758372 -10.49357605 156.4112854 C-10.47752532 152.9214667 -10.49342005 149.43280624 -10.51261902 145.94302368 C-10.51063662 143.7333857 -10.506793 141.52374844 -10.50090027 139.31411743 C-10.51000931 137.74373718 -10.51000931 137.74373718 -10.51930237 136.14163208 C-10.50984589 135.1705249 -10.5003894 134.19941772 -10.49064636 133.19888306 C-10.48825958 132.34411377 -10.4858728 131.48934448 -10.4834137 130.6086731 C-10.01330272 127.89277764 -9.33611752 126.99490532 -7.10246277 125.40786743 C-3.41496277 125.22036743 -3.41496277 125.22036743 -0.10246277 125.40786743 C-0.10246277 122.76786743 -0.10246277 120.12786743 -0.10246277 117.40786743 C-1.38121277 117.44911743 -2.65996277 117.49036743 -3.97746277 117.53286743 C-6.15715027 117.60317993 -6.15715027 117.60317993 -8.10246277 117.40786743 C-10.61190582 114.89842438 -10.35496606 114.09022656 -10.36125183 110.62271118 C-10.36755615 109.62828003 -10.37386047 108.63384888 -10.38035583 107.60928345 C-10.37630737 106.53219116 -10.37225891 105.45509888 -10.36808777 104.34536743 C-10.37000122 103.24313843 -10.37191467 102.14090942 -10.37388611 101.00527954 C-10.37524889 98.67169975 -10.37154599 96.3381124 -10.36320496 94.00454712 C-10.35250698 90.42266896 -10.36309735 86.8412924 -10.37590027 83.25942993 C-10.37457869 80.99640799 -10.37201633 78.73338635 -10.36808777 76.47036743 C-10.37213623 75.39327515 -10.37618469 74.31618286 -10.38035583 73.20645142 C-10.37405151 72.21202026 -10.36774719 71.21758911 -10.36125183 70.19302368 C-10.35966064 69.31525269 -10.35806946 68.43748169 -10.35643005 67.53311157 C-10.10246277 65.40786743 -10.10246277 65.40786743 -8.10246277 63.40786743 C-5.41406892 63.13794837 -2.8110434 63.32049386 -0.10246277 63.40786743 C-0.10246277 60.76786743 -0.10246277 58.12786743 -0.10246277 55.40786743 C-1.19558777 55.46974243 -2.28871277 55.53161743 -3.41496277 55.59536743 C-7.10246277 55.40786743 -7.10246277 55.40786743 -8.80867004 54.19558716 C-10.49002104 51.87235231 -10.48267449 50.47179129 -10.49064636 47.61685181 C-10.50010284 46.64574463 -10.50955933 45.67463745 -10.51930237 44.67410278 C-10.51322968 43.62718262 -10.50715698 42.58026245 -10.50090027 41.50161743 C-10.50377045 40.42537109 -10.50664062 39.34912476 -10.50959778 38.24026489 C-10.51164002 35.96393305 -10.50609906 33.68758372 -10.49357605 31.4112854 C-10.47752532 27.9214667 -10.49342005 24.43280624 -10.51261902 20.94302368 C-10.51063662 18.7333857 -10.506793 16.52374844 -10.50090027 14.31411743 C-10.50697296 13.26719727 -10.51304565 12.2202771 -10.51930237 11.14163208 C-10.50984589 10.1705249 -10.5003894 9.19941772 -10.49064636 8.19888306 C-10.48825958 7.34411377 -10.4858728 6.48934448 -10.4834137 5.6086731 C-9.46676095 -0.264669 -5.16839081 0.02501972 0 0 Z " fill="#76A7D9" transform="translate(167.1024627685547,132.59213256835938)"/>
<path d="M0 0 C0.73069688 -0.00467997 1.46139377 -0.00935994 2.21423298 -0.01418173 C4.66945877 -0.02617419 7.12413076 -0.01665817 9.57936096 -0.00723267 C11.33684109 -0.01129653 13.09431867 -0.01663736 14.85179138 -0.02316284 C19.63071897 -0.03686537 24.40945274 -0.03152544 29.18838382 -0.02202559 C34.18468682 -0.01444298 39.18097297 -0.02147081 44.17727661 -0.02618408 C52.56963589 -0.03164623 60.96191604 -0.02443852 69.35426331 -0.01016235 C79.06149912 0.00615972 88.76854587 0.00088071 98.47577709 -0.01564157 C106.8036608 -0.02924971 115.13148754 -0.03117923 123.45937878 -0.02332556 C128.43605941 -0.01864467 133.41265115 -0.01803553 138.3893261 -0.02793503 C143.06871145 -0.03659244 147.7478528 -0.03060521 152.42721176 -0.01325226 C154.14612866 -0.00928063 155.86506605 -0.01043299 157.58397484 -0.01704025 C159.92768103 -0.02521944 162.27060187 -0.01497868 164.61425781 0 C165.92668174 0.00113108 167.23910566 0.00226215 168.59130001 0.00342751 C172.04392133 0.40090172 173.464234 0.91975294 175.87062073 3.38095093 C176.37182617 5.58175659 176.37182617 5.58175659 176.37232971 8.17196655 C176.38171066 9.14307373 176.39109161 10.11418091 176.40075684 11.11471558 C176.38390587 12.68509583 176.38390587 12.68509583 176.36671448 14.28720093 C176.36816971 15.36344727 176.36962494 16.4396936 176.37112427 17.54855347 C176.36946364 19.82490749 176.35788425 22.10127255 176.33717346 24.37753296 C176.30823279 27.86743728 176.31655894 31.35582217 176.3296051 34.84579468 C176.32336753 37.0554375 176.31497645 39.26507551 176.30421448 41.47470093 C176.30715012 42.52162109 176.31008575 43.56854126 176.31311035 44.64718628 C176.30042618 45.61829346 176.287742 46.58940063 176.27467346 47.5899353 C176.26927048 48.44470459 176.26386749 49.29947388 176.25830078 50.18014526 C175.78264998 52.88034861 175.07531112 53.7843214 172.87062073 55.38095093 C169.68312073 55.56845093 169.68312073 55.56845093 166.87062073 55.38095093 C166.87062073 58.02095093 166.87062073 60.66095093 166.87062073 63.38095093 C168.54124573 63.31907593 168.54124573 63.31907593 170.24562073 63.25595093 C173.87062073 63.38095093 173.87062073 63.38095093 175.87062073 65.38095093 C176.12458801 67.50619507 176.12458801 67.50619507 176.12940979 70.16610718 C176.13571411 71.16053833 176.14201843 72.15496948 176.14851379 73.17953491 C176.1424411 74.79517334 176.1424411 74.79517334 176.13624573 76.44345093 C176.13815918 77.54567993 176.14007263 78.64790894 176.14204407 79.78353882 C176.14340685 82.11711861 176.13970395 84.45070596 176.13136292 86.78427124 C176.12066494 90.3661494 176.13125531 93.94752596 176.14405823 97.52938843 C176.14273665 99.79241037 176.14017429 102.05543201 176.13624573 104.31845093 C176.14029419 105.39554321 176.14434265 106.4726355 176.14851379 107.58236694 C176.13905731 109.07401367 176.13905731 109.07401367 176.12940979 110.59579468 C176.1278186 111.47356567 176.12622742 112.35133667 176.12458801 113.25570679 C175.87062073 115.38095093 175.87062073 115.38095093 173.87062073 117.38095093 C171.18222688 117.65086999 168.57920136 117.4683245 165.87062073 117.38095093 C165.87062073 120.02095093 165.87062073 122.66095093 165.87062073 125.38095093 C166.96374573 125.31907593 168.05687073 125.25720093 169.18312073 125.19345093 C172.87062073 125.38095093 172.87062073 125.38095093 174.576828 126.5932312 C176.258179 128.91646605 176.25083245 130.31702707 176.25880432 133.17196655 C176.2682608 134.14307373 176.27771729 135.11418091 176.28746033 136.11471558 C176.27835129 137.68509583 176.27835129 137.68509583 176.26905823 139.28720093 C176.27336349 140.90157043 176.27336349 140.90157043 176.27775574 142.54855347 C176.27979798 144.82488531 176.27425702 147.10123464 176.26173401 149.37753296 C176.24568327 152.86735166 176.261578 156.35601212 176.28077698 159.84579468 C176.27879457 162.05543266 176.27495096 164.26506992 176.26905823 166.47470093 C176.27513092 167.52162109 176.28120361 168.56854126 176.28746033 169.64718628 C176.2732756 171.10384705 176.2732756 171.10384705 176.25880432 172.5899353 C176.25641754 173.44470459 176.25403076 174.29947388 176.25157166 175.18014526 C175.78357691 177.88381496 175.07721649 178.7838878 172.87062073 180.38095093 C169.68312073 180.56845093 169.68312073 180.56845093 166.87062073 180.38095093 C166.87062073 183.02095093 166.87062073 185.66095093 166.87062073 188.38095093 C111.43062073 188.38095093 55.99062073 188.38095093 -1.12937927 188.38095093 C-1.12937927 185.74095093 -1.12937927 183.10095093 -1.12937927 180.38095093 C-2.05750427 180.44282593 -2.98562927 180.50470093 -3.94187927 180.56845093 C-7.12937927 180.38095093 -7.12937927 180.38095093 -8.80433655 179.16867065 C-10.52589091 176.84598578 -10.50953073 175.46645695 -10.51756287 172.5899353 C-10.52701935 171.61882812 -10.53647583 170.64772095 -10.54621887 169.64718628 C-10.54014618 168.60026611 -10.53407349 167.55334595 -10.52781677 166.47470093 C-10.53068695 165.39845459 -10.53355713 164.32220825 -10.53651428 163.21334839 C-10.53855652 160.93701654 -10.53301557 158.66066721 -10.52049255 156.3843689 C-10.50444182 152.8945502 -10.52033655 149.40588974 -10.53953552 145.91610718 C-10.53755312 143.7064692 -10.53370951 141.49683194 -10.52781677 139.28720093 C-10.53692581 137.71682068 -10.53692581 137.71682068 -10.54621887 136.11471558 C-10.53676239 135.1436084 -10.52730591 134.17250122 -10.51756287 133.17196655 C-10.51517609 132.31719727 -10.51278931 131.46242798 -10.5103302 130.58175659 C-10.04021923 127.86586113 -9.36303402 126.96798882 -7.12937927 125.38095093 C-3.44187927 125.19345093 -3.44187927 125.19345093 -0.12937927 125.38095093 C-0.12937927 122.74095093 -0.12937927 120.10095093 -0.12937927 117.38095093 C-1.40812927 117.42220093 -2.68687927 117.46345093 -4.00437927 117.50595093 C-6.18406677 117.57626343 -6.18406677 117.57626343 -8.12937927 117.38095093 C-10.63882232 114.87150788 -10.38188257 114.06331006 -10.38816833 110.59579468 C-10.39447266 109.60136353 -10.40077698 108.60693237 -10.40727234 107.58236694 C-10.40322388 106.50527466 -10.39917542 105.42818237 -10.39500427 104.31845093 C-10.39691772 103.21622192 -10.39883118 102.11399292 -10.40080261 100.97836304 C-10.4021654 98.64478325 -10.3984625 96.3111959 -10.39012146 93.97763062 C-10.37942348 90.39575246 -10.39001385 86.81437589 -10.40281677 83.23251343 C-10.40149519 80.96949148 -10.39893284 78.70646985 -10.39500427 76.44345093 C-10.39905273 75.36635864 -10.4031012 74.28926636 -10.40727234 73.17953491 C-10.40096802 72.18510376 -10.3946637 71.19067261 -10.38816833 70.16610718 C-10.38657715 69.28833618 -10.38498596 68.41056519 -10.38334656 67.50619507 C-10.12937927 65.38095093 -10.12937927 65.38095093 -8.12937927 63.38095093 C-5.44098543 63.11103187 -2.83795991 63.29357736 -0.12937927 63.38095093 C-0.12937927 60.74095093 -0.12937927 58.10095093 -0.12937927 55.38095093 C-1.22250427 55.44282593 -2.31562927 55.50470093 -3.44187927 55.56845093 C-7.12937927 55.38095093 -7.12937927 55.38095093 -8.83558655 54.16867065 C-10.51693755 51.8454358 -10.50959099 50.44487478 -10.51756287 47.5899353 C-10.52701935 46.61882812 -10.53647583 45.64772095 -10.54621887 44.64718628 C-10.54014618 43.60026611 -10.53407349 42.55334595 -10.52781677 41.47470093 C-10.53068695 40.39845459 -10.53355713 39.32220825 -10.53651428 38.21334839 C-10.53855652 35.93701654 -10.53301557 33.66066721 -10.52049255 31.3843689 C-10.50444182 27.8945502 -10.52033655 24.40588974 -10.53953552 20.91610718 C-10.53755312 18.7064692 -10.53370951 16.49683194 -10.52781677 14.28720093 C-10.53388947 13.24028076 -10.53996216 12.1933606 -10.54621887 11.11471558 C-10.53676239 10.1436084 -10.52730591 9.17250122 -10.51756287 8.17196655 C-10.51517609 7.31719727 -10.51278931 6.46242798 -10.5103302 5.58175659 C-9.49050508 -0.30991277 -5.17933743 0.00446495 0 0 Z " fill="#4B5665" transform="translate(167.12937927246094,132.61904907226563)"/>
<path d="M0 0 C57.42 0 114.84 0 174 0 C174 14.19 174 28.38 174 43 C116.58 43 59.16 43 0 43 C0 28.81 0 14.62 0 0 Z " fill="#434E5C" transform="translate(163,139)"/>
<path d="M0 0 C57.42 0 114.84 0 174 0 C174 13.86 174 27.72 174 42 C116.58 42 59.16 42 0 42 C0 28.14 0 14.28 0 0 Z " fill="#414C5B" transform="translate(163,202)"/>
<path d="M0 0 C0.73069688 -0.00467997 1.46139377 -0.00935994 2.21423298 -0.01418173 C4.66945877 -0.02617419 7.12413076 -0.01665817 9.57936096 -0.00723267 C11.33684109 -0.01129653 13.09431867 -0.01663736 14.85179138 -0.02316284 C19.63071897 -0.03686537 24.40945274 -0.03152544 29.18838382 -0.02202559 C34.18468682 -0.01444298 39.18097297 -0.02147081 44.17727661 -0.02618408 C52.56963589 -0.03164623 60.96191604 -0.02443852 69.35426331 -0.01016235 C79.06149912 0.00615972 88.76854587 0.00088071 98.47577709 -0.01564157 C106.8036608 -0.02924971 115.13148754 -0.03117923 123.45937878 -0.02332556 C128.43605941 -0.01864467 133.41265115 -0.01803553 138.3893261 -0.02793503 C143.06871145 -0.03659244 147.7478528 -0.03060521 152.42721176 -0.01325226 C154.14612866 -0.00928063 155.86506605 -0.01043299 157.58397484 -0.01704025 C159.92768103 -0.02521944 162.27060187 -0.01497868 164.61425781 0 C165.92668174 0.00113108 167.23910566 0.00226215 168.59130001 0.00342751 C172.04392133 0.40090172 173.464234 0.91975294 175.87062073 3.38095093 C176.37182617 5.58175659 176.37182617 5.58175659 176.37232971 8.17196655 C176.38171066 9.14307373 176.39109161 10.11418091 176.40075684 11.11471558 C176.38390587 12.68509583 176.38390587 12.68509583 176.36671448 14.28720093 C176.36816971 15.36344727 176.36962494 16.4396936 176.37112427 17.54855347 C176.36946364 19.82490749 176.35788425 22.10127255 176.33717346 24.37753296 C176.30823279 27.86743728 176.31655894 31.35582217 176.3296051 34.84579468 C176.32336753 37.0554375 176.31497645 39.26507551 176.30421448 41.47470093 C176.30715012 42.52162109 176.31008575 43.56854126 176.31311035 44.64718628 C176.30042618 45.61829346 176.287742 46.58940063 176.27467346 47.5899353 C176.26927048 48.44470459 176.26386749 49.29947388 176.25830078 50.18014526 C175.75925702 53.01314719 175.20591846 53.69847893 172.87062073 55.38095093 C170.39567383 55.67552304 168.17186702 55.78592387 165.69654846 55.76190186 C164.59331946 55.76892181 164.59331946 55.76892181 163.467803 55.77608359 C160.99642491 55.78807636 158.52559696 55.77855993 156.05421448 55.76913452 C154.28525976 55.77319833 152.51630758 55.77853913 150.74736023 55.7850647 C145.93750944 55.79876681 141.12785123 55.79342773 136.31799698 55.78392744 C131.29052959 55.77634582 126.26307898 55.78337228 121.23561096 55.78808594 C112.79197725 55.79354786 104.34842219 55.78634042 95.90480042 55.77206421 C86.13506104 55.75573687 76.36550947 55.76102507 66.59577465 55.77754343 C58.21610243 55.79114585 49.83648683 55.79308405 41.45680714 55.78522742 C36.44830051 55.78054405 31.43988222 55.77994424 26.43138123 55.78983688 C21.72327229 55.7984862 17.0154061 55.79252201 12.30732346 55.77515411 C10.57669859 55.77117836 8.8460534 55.77234184 7.11543655 55.77894211 C4.75824376 55.78710495 2.40183541 55.77690059 0.04469299 55.76190186 C-0.64489282 55.76859402 -1.33447863 55.77528619 -2.04496098 55.78218114 C-4.88713781 55.74695086 -6.71029294 55.68281691 -9.05394936 53.99469185 C-10.52704521 51.78423162 -10.51017151 50.23697607 -10.51756287 47.5899353 C-10.52701935 46.61882812 -10.53647583 45.64772095 -10.54621887 44.64718628 C-10.54014618 43.60026611 -10.53407349 42.55334595 -10.52781677 41.47470093 C-10.53068695 40.39845459 -10.53355713 39.32220825 -10.53651428 38.21334839 C-10.53855652 35.93701654 -10.53301557 33.66066721 -10.52049255 31.3843689 C-10.50444182 27.8945502 -10.52033655 24.40588974 -10.53953552 20.91610718 C-10.53755312 18.7064692 -10.53370951 16.49683194 -10.52781677 14.28720093 C-10.53388947 13.24028076 -10.53996216 12.1933606 -10.54621887 11.11471558 C-10.53676239 10.1436084 -10.52730591 9.17250122 -10.51756287 8.17196655 C-10.51517609 7.31719727 -10.51278931 6.46242798 -10.5103302 5.58175659 C-9.49050508 -0.30991277 -5.17933743 0.00446495 0 0 Z M-4.12937927 6.38095093 C-4.12937927 20.57095093 -4.12937927 34.76095093 -4.12937927 49.38095093 C53.29062073 49.38095093 110.71062073 49.38095093 169.87062073 49.38095093 C169.87062073 35.19095093 169.87062073 21.00095093 169.87062073 6.38095093 C112.45062073 6.38095093 55.03062073 6.38095093 -4.12937927 6.38095093 Z " fill="#576474" transform="translate(167.12937927246094,132.61904907226563)"/>
<path d="M0 0 C28.05 0 56.1 0 85 0 C85 7.26 85 14.52 85 22 C79.72 22 74.44 22 69 22 C69 24.31 69 26.62 69 29 C29.77889933 32.71087561 29.77889933 32.71087561 19.74609375 24.60546875 C14.4033074 19.61323429 10.11842201 14.01302037 6 8 C4.02 5.36 2.04 2.72 0 0 Z " fill="#76A7DA" transform="translate(169,321)"/>
<path d="M0 0 C54.78 0 109.56 0 166 0 C166 2.64 166 5.28 166 8 C111.22 8 56.44 8 0 8 C0 5.36 0 2.72 0 0 Z " fill="#3D4857" transform="translate(167,313)"/>
<path d="M0 0 C54.78 0 109.56 0 166 0 C166 2.64 166 5.28 166 8 C111.22 8 56.44 8 0 8 C0 5.36 0 2.72 0 0 Z " fill="#3D4857" transform="translate(167,250)"/>
<path d="M0 0 C54.78 0 109.56 0 166 0 C166 2.64 166 5.28 166 8 C111.22 8 56.44 8 0 8 C0 5.36 0 2.72 0 0 Z " fill="#3D4857" transform="translate(167,188)"/>
<path d="M0 0 C7.26 0 14.52 0 22 0 C22 7.92 22 15.84 22 24 C14.74 24 7.48 24 0 24 C0 16.08 0 8.16 0 0 Z " fill="#3E4A5A" transform="translate(239,343)"/>
<path d="M0 0 C21.12 0 42.24 0 64 0 C64 2.64 64 5.28 64 8 C42.88 8 21.76 8 0 8 C0 5.36 0 2.72 0 0 Z " fill="#FAFCFD" transform="translate(262,351)"/>
<path d="M0 0 C21.12 0 42.24 0 64 0 C64 2.64 64 5.28 64 8 C42.88 8 21.76 8 0 8 C0 5.36 0 2.72 0 0 Z " fill="#FAFCFD" transform="translate(174,351)"/>
<path d="M0 0 C2.64 0 5.28 0 8 0 C8 7.26 8 14.52 8 22 C5.36 22 2.72 22 0 22 C0 14.74 0 7.48 0 0 Z " fill="#FAFCFE" transform="translate(246,321)"/>
<path d="M0 0 C3 0.25 3 0.25 5 2.25 C5.25 4.75 5.25 4.75 5 7.25 C3 9.25 3 9.25 0 9.5 C-3 9.25 -3 9.25 -5 7.25 C-5.25 4.75 -5.25 4.75 -5 2.25 C-3 0.25 -3 0.25 0 0 Z " fill="#F3F4F5" transform="translate(321,280.75)"/>
<path d="M0 0 C3.29714793 0.32971479 4.6226839 0.6226839 7 3 C6.625 6.125 6.625 6.125 6 9 C0.56559513 10.32841008 0.56559513 10.32841008 -1.9375 8.875 C-3 7 -3 7 -2.8125 4.4375 C-2 2 -2 2 0 0 Z " fill="#F4F5F6" transform="translate(319,218)"/>
<path d="M0 0 C3 0.25 3 0.25 5 2.25 C5.25 4.75 5.25 4.75 5 7.25 C3 9.25 3 9.25 0 9.5 C-3 9.25 -3 9.25 -5 7.25 C-5.25 4.75 -5.25 4.75 -5 2.25 C-3 0.25 -3 0.25 0 0 Z " fill="#F3F3F4" transform="translate(321,155.75)"/>
<path d="M0 0 C1.98 0 3.96 0 6 0 C6 2.64 6 5.28 6 8 C1.125 3.375 1.125 3.375 0 0 Z " fill="#6E99C5" transform="translate(161,250)"/>
<path d="M0 0 C1.65 0 3.3 0 5 0 C5 1.65 5 3.3 5 5 C3.35 5 1.7 5 0 5 C0 3.35 0 1.7 0 0 Z " fill="#D1D4D7" transform="translate(187,283)"/>
<path d="M0 0 C1.65 0 3.3 0 5 0 C5 1.65 5 3.3 5 5 C3.35 5 1.7 5 0 5 C0 3.35 0 1.7 0 0 Z " fill="#D1D4D7" transform="translate(240,283)"/>
<path d="M0 0 C1.65 0 3.3 0 5 0 C5 1.65 5 3.3 5 5 C3.35 5 1.7 5 0 5 C0 3.35 0 1.7 0 0 Z " fill="#CFD2D5" transform="translate(200,283)"/>
<path d="M0 0 C1.65 0 3.3 0 5 0 C5 1.65 5 3.3 5 5 C3.35 5 1.7 5 0 5 C0 3.35 0 1.7 0 0 Z " fill="#D1D4D7" transform="translate(220,229)"/>
<path d="M0 0 C1.65 0 3.3 0 5 0 C5 1.65 5 3.3 5 5 C3.35 5 1.7 5 0 5 C0 3.35 0 1.7 0 0 Z " fill="#D1D4D7" transform="translate(207,229)"/>
<path d="M0 0 C1.65 0 3.3 0 5 0 C5 1.65 5 3.3 5 5 C3.35 5 1.7 5 0 5 C0 3.35 0 1.7 0 0 Z " fill="#CDD0D4" transform="translate(200,221)"/>
<path d="M0 0 C1.65 0 3.3 0 5 0 C5 1.65 5 3.3 5 5 C3.35 5 1.7 5 0 5 C0 3.35 0 1.7 0 0 Z " fill="#D1D4D7" transform="translate(220,212)"/>
<path d="M0 0 C1.65 0 3.3 0 5 0 C5 1.65 5 3.3 5 5 C3.35 5 1.7 5 0 5 C0 3.35 0 1.7 0 0 Z " fill="#D1D4D7" transform="translate(207,212)"/>
<path d="M0 0 C1.65 0 3.3 0 5 0 C5 1.65 5 3.3 5 5 C3.35 5 1.7 5 0 5 C0 3.35 0 1.7 0 0 Z " fill="#D1D4D7" transform="translate(187,158)"/>
<path d="M0 0 C1.65 0 3.3 0 5 0 C5 1.65 5 3.3 5 5 C3.35 5 1.7 5 0 5 C0 3.35 0 1.7 0 0 Z " fill="#CFD2D6" transform="translate(200,158)"/>
<path d="M0 0 C1.98 0 3.96 0 6 0 C6 2.64 6 5.28 6 8 C3.87961365 5.38485683 1.86908256 2.80362384 0 0 Z " fill="#6F9BC9" transform="translate(161,188)"/>
<path d="M0 0 C1.65 0 3.3 0 5 0 C5 1.32 5 2.64 5 4 C3.35 4 1.7 4 0 4 C0 2.68 0 1.36 0 0 Z " fill="#E4E6E8" transform="translate(207,292)"/>
<path d="M0 0 C1.32 0 2.64 0 4 0 C4 1.65 4 3.3 4 5 C2.68 5 1.36 5 0 5 C0 3.35 0 1.7 0 0 Z " fill="#E7E8EA" transform="translate(227,283)"/>
<path d="M0 0 C1.65 0 3.3 0 5 0 C5 1.32 5 2.64 5 4 C3.35 4 1.7 4 0 4 C0 2.68 0 1.36 0 0 Z " fill="#E4E6E8" transform="translate(207,275)"/>
<path d="M0 0 C1.65 0 3.3 0 5 0 C5 1.32 5 2.64 5 4 C3.35 4 1.7 4 0 4 C0 2.68 0 1.36 0 0 Z " fill="#E6E8EA" transform="translate(187,221)"/>
<path d="M0 0 C1.65 0 3.3 0 5 0 C5 1.32 5 2.64 5 4 C3.35 4 1.7 4 0 4 C0 2.68 0 1.36 0 0 Z " fill="#E4E6E8" transform="translate(207,150)"/>
</svg>
